<svg width="668" height="557" viewBox="0 0 668 557" fill="none" xmlns="http://www.w3.org/2000/svg">
<path d="M181.864 46.9095L181.861 46.9119C172.124 53.3236 160.879 63.1449 150.906 72.5985C100.559 80.2947 71.1564 95.394 54.0944 116.509C42.4941 130.864 36.7455 147.829 33.8819 166.702C31.0273 185.515 31.021 206.378 31.0144 228.585L31.0144 228.668L31.0144 228.67L31 238.524V238.527V462.407C31 473.025 35.2439 481.641 43.0817 487.543C50.8492 493.392 61.9632 496.444 75.551 496.444C89.1503 496.444 100.27 493.392 108.04 487.543C115.865 481.652 120.107 473.058 120.123 462.469C120.15 462.13 120.21 461.34 120.299 460.156C120.701 454.85 121.702 441.63 122.99 425.692C124.665 404.94 126.836 379.44 128.834 360.274L128.838 360.235L128.84 360.195C130.441 335.304 137.042 320.677 148.265 314.076C159.668 307.381 176.858 308.5 198 314.259C199.045 314.544 200.098 314.839 201.159 315.145V449.558C201.159 457.782 201.271 464.745 202.316 470.483C203.372 476.277 205.412 481.021 209.407 484.662C213.363 488.268 219.01 490.584 226.855 492.021C231.314 492.838 236.548 493.382 242.686 493.699C244.698 501.393 247.948 506.85 253.013 510.578C258.224 514.412 265.098 516.219 273.796 517.11C282.477 518 293.273 518 306.505 518H306.61H306.705C319.95 518 330.857 518 339.701 517.173C348.556 516.345 355.622 514.67 361.042 511.128C366.546 507.531 370.125 502.162 372.313 494.454C374.482 486.815 375.318 476.77 375.318 463.632V377.847C392.984 381.631 410.429 383.557 427.141 382.527C432.724 382.183 438.205 381.765 443.582 381.273V441.409C443.582 444.893 443.544 448.189 443.509 451.294C443.44 457.257 443.38 462.518 443.611 467.055C443.964 473.971 445 479.694 448.006 484.139C451.067 488.666 455.944 491.549 463.238 493.31C467.631 494.37 472.983 495.043 479.488 495.41C481.529 500.56 484.447 504.411 488.531 507.206C493.736 510.769 500.593 512.447 509.279 513.275C517.955 514.102 528.748 514.102 541.987 514.102H542.085H542.191C555.424 514.102 566.023 514.102 574.407 513.274C582.801 512.445 589.3 510.764 594.132 507.159C599.036 503.501 601.937 498.084 603.624 490.44C605.3 482.846 605.825 472.837 605.825 459.734V318.74C626.341 296.56 637 269.032 637 236.726C637 186.783 620.768 143.997 589.924 113.125L588.51 114.538L589.924 113.124C556.307 79.4833 506.341 61.8291 445.663 61.8135C444.884 61.8051 415.327 61.5318 324.53 63.9126C319.267 57.2257 313.22 51.8265 306.383 47.7549C281.81 33.1198 256.907 41.6846 254.092 42.7273L254.091 42.7277C250.893 43.9147 247.513 45.335 244.028 46.9243C239.689 44.2648 235.17 42.1824 230.473 40.6876L230.473 40.6875C204.824 32.5305 184.184 45.3889 181.864 46.9095Z" stroke="#c0c0c0" fill="white" stroke-width="8"/>
<circle cx="136" cy="185" r="22" fill="#EB5757"/>
</svg>
