<svg id="Layer_1" data-name="Layer 1" xmlns="http://www.w3.org/2000/svg" viewBox="0 0 172.62 34.06"><defs><style>.cls-1{fill:#fcfcfc;}</style></defs><title>logo</title><rect class="cls-1" x="144.07" width="28.55" height="11.35"/><rect class="cls-1" x="144.07" y="24.69" width="28.55" height="3.86"/><rect class="cls-1" x="144.07" y="15.02" width="28.55" height="5.82"/><path class="cls-1" d="M425.77,636.32h3.61v2.15a5.36,5.36,0,0,1,1.9-1.79,5.23,5.23,0,0,1,2.66-.69,5.58,5.58,0,0,1,4.33,2,8.08,8.08,0,0,1,1.78,5.57,8.35,8.35,0,0,1-1.79,5.7,5.6,5.6,0,0,1-4.34,2,5,5,0,0,1-2.2-.48,7.42,7.42,0,0,1-2.07-1.65v7.37h-3.87Zm3.83,7.07a5.63,5.63,0,0,0,1,3.65,3,3,0,0,0,2.39,1.18,2.8,2.8,0,0,0,2.25-1.08,5.59,5.59,0,0,0,.89-3.55,5.31,5.31,0,0,0-.92-3.42,2.85,2.85,0,0,0-2.29-1.11,3,3,0,0,0-2.36,1.09A4.88,4.88,0,0,0,429.6,643.39Z" transform="translate(-425.77 -622.47)"/><path class="cls-1" d="M441.84,651V630.76h3.87V651Z" transform="translate(-425.77 -622.47)"/><path class="cls-1" d="M451.27,640.79l-3.51-.63a5.48,5.48,0,0,1,2-3.14,7.47,7.47,0,0,1,4.3-1,9.3,9.3,0,0,1,3.86.61,3.85,3.85,0,0,1,1.79,1.56,8,8,0,0,1,.52,3.47l0,4.52a15.74,15.74,0,0,0,.19,2.85,8.3,8.3,0,0,0,.7,2h-3.83c-.1-.26-.23-.64-.37-1.15-.07-.23-.11-.38-.14-.45a7,7,0,0,1-2.12,1.45,6.13,6.13,0,0,1-2.41.48,5,5,0,0,1-3.56-1.23,4.07,4.07,0,0,1-1.3-3.1,4.14,4.14,0,0,1,.59-2.21,3.86,3.86,0,0,1,1.66-1.49,13.07,13.07,0,0,1,3.08-.9,20.93,20.93,0,0,0,3.76-1V641a2,2,0,0,0-.55-1.59,3.31,3.31,0,0,0-2.08-.48,2.76,2.76,0,0,0-1.61.41A2.8,2.8,0,0,0,451.27,640.79Zm5.18,3.14c-.5.16-1.28.36-2.36.59a7.2,7.2,0,0,0-2.11.67,1.62,1.62,0,0,0-.75,1.37,1.91,1.91,0,0,0,.61,1.41,2.13,2.13,0,0,0,1.54.59,3.34,3.34,0,0,0,2-.69,2.41,2.41,0,0,0,.92-1.28,7.6,7.6,0,0,0,.15-1.89Z" transform="translate(-425.77 -622.47)"/><path class="cls-1" d="M469.59,636.32v3.09h-2.65v5.9a14.71,14.71,0,0,0,.08,2.09.84.84,0,0,0,.35.49,1.08,1.08,0,0,0,.65.2,5,5,0,0,0,1.56-.38l.33,3a7.69,7.69,0,0,1-3.06.58,4.88,4.88,0,0,1-1.89-.35,2.74,2.74,0,0,1-1.23-.91,3.62,3.62,0,0,1-.55-1.51,18.91,18.91,0,0,1-.12-2.73v-6.38h-1.78v-3.09h1.78v-2.91l3.89-2.26v5.17Z" transform="translate(-425.77 -622.47)"/><path class="cls-1" d="M470.72,636.32h2.15v-1.1a7.36,7.36,0,0,1,.39-2.76,3.1,3.1,0,0,1,1.45-1.48,5.55,5.55,0,0,1,2.67-.58,10.74,10.74,0,0,1,3.24.5l-.52,2.7a7.63,7.63,0,0,0-1.78-.22,1.59,1.59,0,0,0-1.21.39,2.26,2.26,0,0,0-.37,1.51v1h2.89v3h-2.89V651h-3.87V639.37h-2.15Z" transform="translate(-425.77 -622.47)"/><path class="cls-1" d="M480.36,643.44a7.92,7.92,0,0,1,1-3.73,6.55,6.55,0,0,1,2.69-2.76,8,8,0,0,1,3.89-1,7.3,7.3,0,0,1,5.44,2.16,7.45,7.45,0,0,1,2.13,5.45,7.54,7.54,0,0,1-2.14,5.51,7.26,7.26,0,0,1-5.4,2.19,8.47,8.47,0,0,1-3.84-.91,6.23,6.23,0,0,1-2.78-2.67A8.89,8.89,0,0,1,480.36,643.44Zm4,.21a4.84,4.84,0,0,0,1,3.33,3.37,3.37,0,0,0,5.09,0,4.91,4.91,0,0,0,1-3.36,4.81,4.81,0,0,0-1-3.31,3.38,3.38,0,0,0-5.09,0A4.84,4.84,0,0,0,484.32,643.64Z" transform="translate(-425.77 -622.47)"/><path class="cls-1" d="M500.78,651h-3.87V636.32h3.59v2.08a6.15,6.15,0,0,1,1.66-1.94,3,3,0,0,1,1.67-.47,4.91,4.91,0,0,1,2.55.73l-1.2,3.38a3.38,3.38,0,0,0-1.82-.64,2.15,2.15,0,0,0-1.38.45,3.05,3.05,0,0,0-.89,1.62,23.06,23.06,0,0,0-.32,4.91Z" transform="translate(-425.77 -622.47)"/><path class="cls-1" d="M507.54,636.32h3.57v2a5.75,5.75,0,0,1,4.56-2.33,4.91,4.91,0,0,1,2.44.58,4.42,4.42,0,0,1,1.69,1.75,6.69,6.69,0,0,1,2.08-1.75,5.09,5.09,0,0,1,2.38-.58,5.31,5.31,0,0,1,2.73.65,4,4,0,0,1,1.67,1.93,8.28,8.28,0,0,1,.4,3V651H525.2v-8.37a6.24,6.24,0,0,0-.4-2.81,1.84,1.84,0,0,0-1.65-.83,2.64,2.64,0,0,0-1.53.5,2.74,2.74,0,0,0-1,1.45,10.57,10.57,0,0,0-.31,3v7h-3.88v-8a11.17,11.17,0,0,0-.2-2.75,1.75,1.75,0,0,0-.64-.93,2,2,0,0,0-1.18-.3,2.83,2.83,0,0,0-1.61.48,2.66,2.66,0,0,0-1,1.39,10.37,10.37,0,0,0-.31,3V651h-3.87Z" transform="translate(-425.77 -622.47)"/><path class="cls-1" d="M531,651v-3.87h3.87V651Z" transform="translate(-425.77 -622.47)"/><path class="cls-1" d="M536.32,646.78l3.89-.59a2.84,2.84,0,0,0,1,1.72,3.4,3.4,0,0,0,2.12.58,3.83,3.83,0,0,0,2.26-.55,1.23,1.23,0,0,0,.51-1,1,1,0,0,0-.28-.73,3.05,3.05,0,0,0-1.3-.51q-4.68-1-5.94-1.89a3.77,3.77,0,0,1-1.74-3.29,4.07,4.07,0,0,1,1.5-3.2A7,7,0,0,1,543,636a8.1,8.1,0,0,1,4.47,1,5,5,0,0,1,2,2.89l-3.65.68a2.25,2.25,0,0,0-.89-1.31,3.25,3.25,0,0,0-1.87-.45,4.2,4.2,0,0,0-2.19.43.92.92,0,0,0-.44.79.87.87,0,0,0,.39.7,14.56,14.56,0,0,0,3.62,1.09,10.71,10.71,0,0,1,4.32,1.72,3.59,3.59,0,0,1,1.21,2.88,4.42,4.42,0,0,1-1.68,3.46,7.42,7.42,0,0,1-5,1.45,8.16,8.16,0,0,1-4.74-1.22A5.58,5.58,0,0,1,536.32,646.78Z" transform="translate(-425.77 -622.47)"/><path class="cls-1" d="M555.43,630.76v7.43a5.8,5.8,0,0,1,6.89-1.7,3.91,3.91,0,0,1,1.62,1.27,4.62,4.62,0,0,1,.74,1.71,15.53,15.53,0,0,1,.2,2.91V651H561v-7.74a11.67,11.67,0,0,0-.22-2.92,1.92,1.92,0,0,0-.78-1,2.53,2.53,0,0,0-1.4-.36,3.18,3.18,0,0,0-1.72.47,2.68,2.68,0,0,0-1.11,1.41,8.44,8.44,0,0,0-.35,2.79V651h-3.87V630.76Z" transform="translate(-425.77 -622.47)"/></svg>